<?xml version="1.0" encoding="UTF-8" standalone="no"?>
<svg
   xmlns:ns3="http://www.iki.fi/pav/software/textext/"
   xmlns:dc="http://purl.org/dc/elements/1.1/"
   xmlns:cc="http://creativecommons.org/ns#"
   xmlns:rdf="http://www.w3.org/1999/02/22-rdf-syntax-ns#"
   xmlns:svg="http://www.w3.org/2000/svg"
   xmlns="http://www.w3.org/2000/svg"
   xmlns:sodipodi="http://sodipodi.sourceforge.net/DTD/sodipodi-0.dtd"
   xmlns:inkscape="http://www.inkscape.org/namespaces/inkscape"
   version="1.1"
   id="svg2"
   xml:space="preserve"
   width="206.66667"
   height="77.333336"
   viewBox="0 0 206.66667 77.333336"
   sodipodi:docname="PP3_Fig4_SwitchNet.svg"
   inkscape:version="1.0.2-2 (e86c870879, 2021-01-15)"><metadata
     id="metadata8"><rdf:RDF><cc:Work
         rdf:about=""><dc:format>image/svg+xml</dc:format><dc:type
           rdf:resource="http://purl.org/dc/dcmitype/StillImage" /><dc:title></dc:title></cc:Work></rdf:RDF></metadata><defs
     id="defs6" /><sodipodi:namedview
     pagecolor="#ffffff"
     bordercolor="#666666"
     borderopacity="1"
     objecttolerance="10"
     gridtolerance="10"
     guidetolerance="10"
     inkscape:pageopacity="0"
     inkscape:pageshadow="2"
     inkscape:window-width="1500"
     inkscape:window-height="930"
     id="namedview4"
     showgrid="false"
     inkscape:zoom="2.7967741"
     inkscape:cx="139.65024"
     inkscape:cy="101.10255"
     inkscape:window-x="-6"
     inkscape:window-y="-6"
     inkscape:window-maximized="1"
     inkscape:current-layer="g1170"
     inkscape:document-rotation="0" /><g
     id="g10"
     inkscape:groupmode="layer"
     inkscape:label="ink_ext_XXXXXX"
     transform="matrix(1.3333333,0,0,-1.3333333,0,77.333333)"><path
       d="m 85.973,51.1129 h 48.019 c 0.067,0 0.121,-0.0539 0.121,-0.125 V 2.16406 c 0,-0.06992 -0.054,-0.125 -0.121,-0.125 H 85.973 c -0.071,0 -0.125,0.05508 -0.125,0.125 V 50.9879 c 0,0.0711 0.054,0.125 0.125,0.125 z"
       style="fill:#ffaaaa;fill-opacity:1;fill-rule:nonzero;stroke:none;stroke-width:0.1"
       id="path14" /><path
       d="m 85.973,51.1129 h 48.019 c 0.067,0 0.121,-0.0539 0.121,-0.125 V 2.16406 c 0,-0.06992 -0.054,-0.125 -0.121,-0.125 H 85.973 c -0.071,0 -0.125,0.05508 -0.125,0.125 V 50.9879 c 0,0.0711 0.054,0.125 0.125,0.125 z"
       style="fill:none;stroke:#000000;stroke-width:0.394013;stroke-linecap:round;stroke-linejoin:bevel;stroke-miterlimit:4;stroke-dasharray:none;stroke-opacity:1"
       id="path16" /><g
       id="g18"
       transform="scale(0.100457,-0.0995431)"><path
         d="m 813.047,-439.12 c 0,31.241 -25.166,56.673 -56.383,56.94 -31.228,0.322 -56.892,-24.596 -57.48,-55.833 -0.614,-31.236 24.07,-57.14 55.299,-58.046 31.228,-0.895 57.32,23.553 58.521,54.742"
         style="fill:none;stroke:#000000;stroke-width:9.38197;stroke-linecap:square;stroke-linejoin:round;stroke-miterlimit:4;stroke-dasharray:none;stroke-opacity:1"
         id="path20" /></g><g
       id="g22"
       transform="scale(0.100457,-0.0995431)"><path
         d="m 815.493,-478.04 -9.406,-9.229 -9.457,-9.179 17.848,-8.48 17.809,-8.512 z m -118.327,99.824 106.86,-107.319 z"
         style="fill:none;stroke:#000000;stroke-width:6.52209;stroke-linecap:butt;stroke-linejoin:round;stroke-miterlimit:4;stroke-dasharray:none;stroke-opacity:1"
         id="path24" /></g><path
       d="m 81.6719,43.9301 h 11.9179 l 7.0272,4.757"
       style="fill:none;stroke:#000000;stroke-width:0.691654;stroke-linecap:butt;stroke-linejoin:miter;stroke-miterlimit:1;stroke-dasharray:none;stroke-opacity:1"
       id="path26" /><path
       d="m 101.742,49.4449 c 0.426,-0.6289 0.262,-1.4918 -0.371,-1.9179 -0.633,-0.429 -1.4921,-0.261 -1.9222,0.3679 -0.4258,0.6321 -0.2609,1.4961 0.3711,1.9211 0.6331,0.4301 1.4931,0.2621 1.9221,-0.3711 z"
       style="fill:#000000;fill-opacity:1;fill-rule:evenodd;stroke:none;stroke-width:0.1"
       id="path28" /><path
       d="m 101.742,49.4449 c 0.426,-0.6289 0.262,-1.4918 -0.371,-1.9179 -0.633,-0.429 -1.4921,-0.261 -1.9222,0.3679 -0.4258,0.6321 -0.2609,1.4961 0.3711,1.9211 0.6331,0.4301 1.4931,0.2621 1.9221,-0.3711 z"
       style="fill:none;stroke:#000000;stroke-width:0.368881;stroke-linecap:butt;stroke-linejoin:miter;stroke-miterlimit:4;stroke-dasharray:none;stroke-opacity:1"
       id="path30" /><g
       id="g32"
       transform="scale(0.100457,-0.0995431)"><path
         d="m 812.499,-277.914 c 0,31.236 -25.155,56.669 -56.383,56.94 -31.229,0.317 -56.889,-24.597 -57.468,-55.877 -0.587,-31.236 24.07,-57.097 55.286,-58.003 31.229,-0.895 57.32,23.553 58.526,54.75"
         style="fill:none;stroke:#000000;stroke-width:9.38197;stroke-linecap:square;stroke-linejoin:round;stroke-miterlimit:4;stroke-dasharray:none;stroke-opacity:1"
         id="path34" /></g><g
       id="g36"
       transform="scale(0.100457,-0.0995431)"><path
         d="m 814.949,-316.838 -9.411,-9.226 -9.445,-9.179 17.848,-8.511 17.81,-8.48 z m -118.331,99.835 106.859,-107.37 z"
         style="fill:none;stroke:#000000;stroke-width:6.52209;stroke-linecap:butt;stroke-linejoin:round;stroke-miterlimit:4;stroke-dasharray:none;stroke-opacity:1"
         id="path38" /></g><path
       d="m 81.6172,27.8828 11.918,0.0043 7.0278,4.7539"
       style="fill:none;stroke:#000000;stroke-width:0.691654;stroke-linecap:butt;stroke-linejoin:miter;stroke-miterlimit:1;stroke-dasharray:none;stroke-opacity:1"
       id="path40" /><path
       d="m 101.688,33.402 c 0.425,-0.6321 0.261,-1.4961 -0.372,-1.9219 -0.632,-0.4289 -1.4922,-0.261 -1.9211,0.3719 -0.4258,0.632 -0.2621,1.4921 0.3711,1.9179 0.632,0.4289 1.492,0.2653 1.922,-0.3679 z"
       style="fill:#000000;fill-opacity:1;fill-rule:evenodd;stroke:none;stroke-width:0.1"
       id="path42" /><path
       d="m 101.688,33.402 c 0.425,-0.6321 0.261,-1.4961 -0.372,-1.9219 -0.632,-0.4289 -1.4922,-0.261 -1.9211,0.3719 -0.4258,0.632 -0.2621,1.4921 0.3711,1.9179 0.632,0.4289 1.492,0.2653 1.922,-0.3679 z"
       style="fill:none;stroke:#000000;stroke-width:0.368881;stroke-linecap:butt;stroke-linejoin:miter;stroke-miterlimit:4;stroke-dasharray:none;stroke-opacity:1"
       id="path44" /><g
       id="g46"
       transform="scale(0.100457,-0.0995431)"><path
         d="m 813.047,-72.4443 c 0,31.2797 -25.166,56.673 -56.383,56.9791 -31.228,0.2786 -56.892,-24.636 -57.48,-55.8724 -0.614,-31.2364 24.07,-57.1404 55.299,-58.0464 31.228,-0.856 57.32,23.553 58.521,54.7814"
         style="fill:none;stroke:#000000;stroke-width:9.38197;stroke-linecap:square;stroke-linejoin:round;stroke-miterlimit:4;stroke-dasharray:none;stroke-opacity:1"
         id="path48" /></g><g
       id="g50"
       transform="scale(0.100457,-0.0995431)"><path
         d="m 815.493,-111.364 -9.406,-9.191 -9.457,-9.218 17.848,-8.48 17.809,-8.472 -8.391,17.659 z m -118.327,99.823 106.86,-107.318 z"
         style="fill:none;stroke:#000000;stroke-width:6.52209;stroke-linecap:butt;stroke-linejoin:round;stroke-miterlimit:4;stroke-dasharray:none;stroke-opacity:1"
         id="path52" /></g><path
       d="M 81.6719,7.42617 93.5898,7.43008 100.617,12.184"
       style="fill:none;stroke:#000000;stroke-width:0.691654;stroke-linecap:butt;stroke-linejoin:miter;stroke-miterlimit:1;stroke-dasharray:none;stroke-opacity:1"
       id="path54" /><path
       d="m 101.742,12.9449 c 0.426,-0.6328 0.262,-1.4918 -0.371,-1.9219 -0.633,-0.425 -1.4921,-0.2609 -1.9222,0.3719 -0.4258,0.6321 -0.2609,1.4922 0.3711,1.9211 0.6331,0.4262 1.4931,0.2621 1.9221,-0.3711 z"
       style="fill:#000000;fill-opacity:1;fill-rule:evenodd;stroke:none;stroke-width:0.1"
       id="path56" /><path
       d="m 101.742,12.9449 c 0.426,-0.6328 0.262,-1.4918 -0.371,-1.9219 -0.633,-0.425 -1.4921,-0.2609 -1.9222,0.3719 -0.4258,0.6321 -0.2609,1.4922 0.3711,1.9211 0.6331,0.4262 1.4931,0.2621 1.9221,-0.3711 z"
       style="fill:none;stroke:#000000;stroke-width:0.368881;stroke-linecap:butt;stroke-linejoin:miter;stroke-miterlimit:4;stroke-dasharray:none;stroke-opacity:1"
       id="path58" /><path
       d="m 102.324,44.066 8.457,0.125 15.051,-18.3469"
       style="fill:none;stroke:#000000;stroke-width:0.688819;stroke-linecap:butt;stroke-linejoin:miter;stroke-miterlimit:4;stroke-dasharray:none;stroke-opacity:1"
       id="path60" /><path
       d="m 101.965,27.5621 8.457,0.125 11.641,-6.1402"
       style="fill:none;stroke:#000000;stroke-width:0.688819;stroke-linecap:butt;stroke-linejoin:miter;stroke-miterlimit:4;stroke-dasharray:none;stroke-opacity:1"
       id="path62" /><path
       d="m 101.574,6.69102 8.457,-0.12891 14.508,11.38279"
       style="fill:none;stroke:#000000;stroke-width:0.688819;stroke-linecap:butt;stroke-linejoin:miter;stroke-miterlimit:4;stroke-dasharray:none;stroke-opacity:1"
       id="path64" /><g
       id="g66"
       transform="scale(0.10447,-0.0955299)"><path
         d="m 1257.38,-227.232 c 0,24.87 -20.15,45.029 -45.01,45.029 -24.83,0 -44.98,-20.159 -44.98,-45.029 0,-24.82 20.15,-44.979 44.98,-44.979 24.86,0 45.01,20.159 45.01,44.979 z"
         style="fill:none;stroke:#000000;stroke-width:4.48686;stroke-linecap:square;stroke-linejoin:round;stroke-miterlimit:4;stroke-dasharray:none;stroke-opacity:1"
         id="path68" /></g><g
       id="g70"><text
         transform="matrix(1,0,0,-0.91441948,124.307,19.1813)"
         style="font-variant:normal;font-weight:normal;font-size:8.35933px;font-family:'Times New Roman';-inkscape-font-specification:TimesNewRomanPSMT;writing-mode:lr-tb;fill:#000000;fill-opacity:1;fill-rule:nonzero;stroke:none"
         id="text74"><tspan
           x="0"
           y="0"
           id="tspan72">+</tspan></text></g><g
       id="g76"
       transform="scale(0.10447,-0.0955299)"><path
         d="m 1210.84,-206.337 v -19.459 h -19.45 v -3.112 h 19.45 v -19.46 h 3.13 v 19.46 h 19.45 v 3.112 h -19.45 v 19.459 z"
         style="fill:none;stroke:#000000;stroke-width:5.00098;stroke-linecap:butt;stroke-linejoin:miter;stroke-miterlimit:4;stroke-dasharray:none;stroke-opacity:1"
         id="path78" /></g><g
       id="g84"><text
         transform="matrix(1,0,0,-1,88.9828,23.8508)"
         style="font-variant:normal;font-weight:normal;font-size:12px;font-family:'Times New Roman';-inkscape-font-specification:TimesNewRomanPSMT;writing-mode:lr-tb;fill:#000000;fill-opacity:1;fill-rule:nonzero;stroke:none"
         id="text90"><tspan
           x="0"
           y="0"
           id="tspan86">.</tspan><tspan
           x="0"
           y="14.4645"
           id="tspan88">.</tspan></text></g><path
       d="m 87.957,56.0199 -0.9058,0.1871 c -0.4422,0.0981 -0.7071,0.4301 -0.7071,0.793 0,0.441 0.375,0.8238 0.9258,0.8238 1.1711,0 1.3281,-1.0308 1.3711,-1.3039 0.011,-0.0398 0.011,-0.0789 0.0891,-0.0789 0.0898,0 0.0898,0.032 0.0898,0.1488 v 1.2543 c 0,0.1047 0,0.1559 -0.0777,0.1559 -0.0473,0 -0.0543,-0.0121 -0.1012,-0.0898 L 88.3871,57.559 C 88.1762,57.7461 87.891,58 87.2621,58 86.477,58 85.891,57.4531 85.891,56.7852 c 0,-0.5192 0.375,-0.9801 0.918,-1.1481 0.0738,-0.0199 0.441,-0.098 0.9371,-0.2031 0.1879,-0.0391 0.3988,-0.0899 0.598,-0.3129 0.1438,-0.168 0.2188,-0.375 0.2188,-0.5781 0,-0.441 -0.352,-0.895 -0.95,-0.895 -0.1988,0 -0.7379,0.0321 -1.1168,0.336 -0.4063,0.3398 -0.4301,0.7351 -0.4301,0.957 -0.0109,0.0711 -0.066,0.0711 -0.089,0.0711 -0.086,0 -0.086,-0.0512 -0.086,-0.157 V 53.602 c 0,-0.1098 0,-0.1489 0.0738,-0.1489 0.0473,0 0.0582,0.0117 0.1012,0.0778 0,0.0121 0.0238,0.0312 0.2539,0.364 0.2231,-0.2148 0.6762,-0.4418 1.3051,-0.4418 0.816,0 1.3828,0.609 1.3828,1.3047 0,0.6172 -0.4648,1.1371 -1.0508,1.2621 z"
       style="fill:#000000;fill-opacity:1;fill-rule:nonzero;stroke:none;stroke-width:0.1"
       id="path92" /><path
       d="m 93.773,55.6871 c 0.1219,0.3129 0.3442,0.4027 0.5981,0.4027 v 0.1954 C 94.2031,56.277 94.0039,56.266 93.852,56.266 c -0.211,0 -0.52,0.011 -0.6532,0.0192 v -0.1954 c 0.2543,0 0.4063,-0.1168 0.4063,-0.2929 0,-0.0391 0,-0.059 -0.0422,-0.1367 l -0.641,-1.5981 -0.6949,1.743 c -0.0239,0.0777 -0.036,0.0898 -0.036,0.1168 0,0.1679 0.2781,0.1679 0.4219,0.1679 v 0.1954 C 92.402,56.277 92.0469,56.266 91.8711,56.266 c -0.2109,0 -0.4102,0.011 -0.6172,0.0192 v -0.1954 c 0.2539,0 0.3633,-0.0117 0.441,-0.0898 0.0321,-0.0391 0.1102,-0.223 0.1531,-0.3398 l -0.5941,-1.5192 -0.6758,1.6641 c -0.0312,0.0777 -0.0312,0.0898 -0.0312,0.1168 0,0.1679 0.273,0.1679 0.4062,0.1679 v 0.1954 C 90.7461,56.277 90.348,56.266 90.191,56.266 c -0.0308,0 -0.4101,0.011 -0.664,0.0192 v -0.1954 c 0.3558,0 0.4421,-0.0199 0.532,-0.2148 l 0.882,-2.2148 C 90.977,53.5699 91,53.523 91.0859,53.523 c 0.102,0 0.1129,0.0391 0.1442,0.125 l 0.7187,1.7661 0.7192,-1.7731 c 0.023,-0.0711 0.0429,-0.118 0.1449,-0.118 0.0851,0 0.109,0.059 0.132,0.118 z"
       style="fill:#000000;fill-opacity:1;fill-rule:nonzero;stroke:none;stroke-width:0.1"
       id="path94" /><path
       d="m 95.7461,56.3551 -0.984,-0.0699 v -0.1954 c 0.4527,0 0.5188,-0.0386 0.5188,-0.3437 v -1.684 c 0,-0.2769 -0.0778,-0.2769 -0.5508,-0.2769 v -0.1954 c 0.2187,0.0122 0.6058,0.0192 0.7738,0.0192 0.2539,0 0.4961,-0.007 0.7383,-0.0192 v 0.1954 c -0.4762,0 -0.4961,0.0308 -0.4961,0.2769 z m 0.0199,1.0859 c 0,0.1961 -0.164,0.332 -0.364,0.332 -0.218,0 -0.375,-0.164 -0.375,-0.332 0,-0.168 0.157,-0.332 0.375,-0.332 0.2,0 0.364,0.1371 0.364,0.332 z"
       style="fill:#000000;fill-opacity:1;fill-rule:nonzero;stroke:none;stroke-width:0.1"
       id="path96" /><path
       d="m 97.6719,56.0898 h 1.016 v 0.1954 h -1.016 v 1.1488 h -0.1797 c 0,-0.5121 -0.207,-1.1762 -0.9063,-1.207 v -0.1372 h 0.5981 v -1.7269 c 0,-0.7609 0.664,-0.8399 0.918,-0.8399 0.496,0 0.6949,0.4418 0.6949,0.8399 v 0.3562 H 98.6211 V 54.375 c 0,-0.4609 -0.2109,-0.6949 -0.4762,-0.6949 -0.473,0 -0.473,0.566 -0.473,0.675 z"
       style="fill:#000000;fill-opacity:1;fill-rule:nonzero;stroke:none;stroke-width:0.1"
       id="path98" /><path
       d="m 100.023,54.9531 c 0,1.0199 0.575,1.2848 0.95,1.2848 0.066,0 0.511,-0.0109 0.754,-0.2379 -0.289,-0.0199 -0.332,-0.2031 -0.332,-0.2809 0,-0.1679 0.132,-0.2851 0.32,-0.2851 0.187,0 0.332,0.0969 0.332,0.293 0,0.421 -0.543,0.6679 -1.082,0.6679 -0.887,0 -1.5271,-0.6758 -1.5271,-1.4539 0,-0.8 0.6951,-1.418 1.5151,-1.418 0.938,0 1.172,0.754 1.172,0.8129 0,0.059 -0.078,0.059 -0.102,0.059 -0.054,0 -0.078,-0.0199 -0.085,-0.059 -0.2,-0.5781 -0.665,-0.6558 -0.918,-0.6558 -0.375,0 -0.997,0.2648 -0.997,1.273 z"
       style="fill:#000000;fill-opacity:1;fill-rule:nonzero;stroke:none;stroke-width:0.1"
       id="path100" /><path
       d="m 102.902,54.0621 c 0,-0.2769 -0.078,-0.2769 -0.55,-0.2769 v -0.1954 c 0.253,0.0122 0.605,0.0192 0.804,0.0192 0.18,0 0.543,-0.007 0.785,-0.0192 v 0.1954 c -0.472,0 -0.55,0 -0.55,0.2769 v 1.157 c 0,0.6438 0.507,0.9957 0.949,0.9957 0.453,0 0.531,-0.332 0.531,-0.6949 v -1.4578 c 0,-0.2769 -0.078,-0.2769 -0.555,-0.2769 v -0.1954 c 0.247,0.0122 0.61,0.0192 0.797,0.0192 0.176,0 0.555,-0.007 0.785,-0.0192 v 0.1954 c -0.363,0 -0.543,0 -0.543,0.1878 v 1.195 c 0,0.539 0,0.7269 -0.218,0.9492 -0.102,0.1098 -0.332,0.2379 -0.742,0.2379 -0.598,0 -0.907,-0.375 -1.028,-0.6172 v 2.1922 l -1.015,-0.0672 V 57.668 c 0.496,0 0.55,-0.0391 0.55,-0.3559 z"
       style="fill:#000000;fill-opacity:1;fill-rule:nonzero;stroke:none;stroke-width:0.1"
       id="path102" /><path
       d="m 110.035,57.773 c -0.066,0.079 -0.066,0.0899 -0.199,0.0899 h -1.207 V 57.668 h 0.211 c 0.101,0 0.242,-0.0121 0.344,-0.0121 0.164,-0.0188 0.175,-0.027 0.175,-0.1438 v -3.266 c 0,-0.1641 0,-0.4609 -0.73,-0.4609 v -0.1954 c 0.246,0.0122 0.598,0.0192 0.832,0.0192 0.23,0 0.574,-0.007 0.816,-0.0192 v 0.1954 c -0.718,0 -0.718,0.2968 -0.718,0.4609 V 57.5 c 0.035,-0.027 0.035,-0.0391 0.066,-0.0781 L 112.5,53.668 c 0.066,-0.066 0.078,-0.0782 0.121,-0.0782 0.098,0 0.098,0.0391 0.098,0.168 v 3.4492 c 0,0.1641 0,0.461 0.73,0.461 v 0.1949 c -0.254,-0.0109 -0.597,-0.0188 -0.828,-0.0188 -0.23,0 -0.574,0.0079 -0.816,0.0188 V 57.668 c 0.715,0 0.715,-0.2969 0.715,-0.461 v -2.6761 z"
       style="fill:#000000;fill-opacity:1;fill-rule:nonzero;stroke:none;stroke-width:0.1"
       id="path104" /><path
       d="m 114.469,55.168 c 0.043,0.93 0.64,1.0898 0.883,1.0898 0.718,0 0.796,-0.8437 0.796,-1.0898 z m 0,-0.1371 h 1.969 c 0.152,0 0.175,0 0.175,0.1371 0,0.6172 -0.386,1.2269 -1.261,1.2269 -0.817,0 -1.469,-0.6488 -1.469,-1.434 0,-0.832 0.742,-1.4379 1.547,-1.4379 0.863,0 1.183,0.6961 1.183,0.8129 0,0.059 -0.054,0.0782 -0.097,0.0782 -0.059,0 -0.078,-0.0391 -0.09,-0.0903 -0.242,-0.6437 -0.883,-0.6437 -0.949,-0.6437 -0.356,0 -0.633,0.1828 -0.797,0.4219 -0.211,0.2929 -0.211,0.7031 -0.211,0.9289 z"
       style="fill:#000000;fill-opacity:1;fill-rule:nonzero;stroke:none;stroke-width:0.1"
       id="path106" /><path
       d="m 118.031,56.0898 h 1.02 v 0.1954 h -1.02 v 1.1488 h -0.176 c 0,-0.5121 -0.21,-1.1762 -0.906,-1.207 v -0.1372 h 0.598 v -1.7269 c 0,-0.7609 0.664,-0.8399 0.918,-0.8399 0.496,0 0.695,0.4418 0.695,0.8399 v 0.3562 h -0.176 V 54.375 c 0,-0.4609 -0.211,-0.6949 -0.476,-0.6949 -0.477,0 -0.477,0.566 -0.477,0.675 z"
       style="fill:#000000;fill-opacity:1;fill-rule:nonzero;stroke:none;stroke-width:0.1"
       id="path108" /><path
       d="m 123.727,55.6871 c 0.121,0.3129 0.339,0.4027 0.597,0.4027 v 0.1954 c -0.168,-0.0082 -0.367,-0.0192 -0.519,-0.0192 -0.211,0 -0.52,0.011 -0.653,0.0192 v -0.1954 c 0.254,0 0.407,-0.1168 0.407,-0.2929 0,-0.0391 0,-0.059 -0.043,-0.1367 l -0.641,-1.5981 -0.695,1.743 c -0.024,0.0777 -0.035,0.0898 -0.035,0.1168 0,0.1679 0.277,0.1679 0.421,0.1679 v 0.1954 C 122.355,56.277 122,56.266 121.824,56.266 c -0.211,0 -0.41,0.011 -0.617,0.0192 v -0.1954 c 0.254,0 0.363,-0.0117 0.441,-0.0898 0.032,-0.0391 0.11,-0.223 0.153,-0.3398 l -0.594,-1.5192 -0.676,1.6641 c -0.035,0.0777 -0.035,0.0898 -0.035,0.1168 0,0.1679 0.277,0.1679 0.41,0.1679 v 0.1954 c -0.211,-0.0082 -0.605,-0.0192 -0.761,-0.0192 -0.036,0 -0.411,0.011 -0.665,0.0192 v -0.1954 c 0.356,0 0.442,-0.0199 0.532,-0.2148 l 0.883,-2.2148 c 0.035,-0.0903 0.058,-0.1372 0.144,-0.1372 0.102,0 0.109,0.0391 0.145,0.125 l 0.718,1.7661 0.719,-1.7731 c 0.02,-0.0711 0.043,-0.118 0.145,-0.118 0.086,0 0.109,0.059 0.132,0.118 z"
       style="fill:#000000;fill-opacity:1;fill-rule:nonzero;stroke:none;stroke-width:0.1"
       id="path110" /><path
       d="m 127.566,54.934 c 0,0.793 -0.695,1.4609 -1.546,1.4609 -0.883,0 -1.571,-0.6879 -1.571,-1.4609 0,-0.8129 0.731,-1.411 1.559,-1.411 0.851,0 1.558,0.618 1.558,1.411 z m -1.546,-1.2539 c -0.309,0 -0.618,0.125 -0.805,0.4219 -0.18,0.273 -0.18,0.6558 -0.18,0.8781 0,0.2469 0,0.5789 0.168,0.8558 0.188,0.2813 0.52,0.4219 0.805,0.4219 0.312,0 0.609,-0.1406 0.797,-0.4137 0.187,-0.266 0.187,-0.625 0.187,-0.864 0,-0.2223 0,-0.566 -0.152,-0.8391 -0.168,-0.2859 -0.477,-0.4609 -0.82,-0.4609 z"
       style="fill:#000000;fill-opacity:1;fill-rule:nonzero;stroke:none;stroke-width:0.1"
       id="path112" /><path
       d="m 128.957,55.668 v 0.6871 l -0.98,-0.0699 v -0.1954 c 0.496,0 0.55,-0.0386 0.55,-0.3519 v -1.6758 c 0,-0.2769 -0.078,-0.2769 -0.55,-0.2769 v -0.1954 c 0.273,0.0122 0.605,0.0192 0.804,0.0192 0.278,0 0.61,0 0.895,-0.0192 v 0.1954 h -0.153 c -0.519,0 -0.531,0.0699 -0.531,0.2968 v 0.9571 c 0,0.6211 0.297,1.1757 0.828,1.1757 0.043,0 0.067,0 0.078,-0.0078 -0.023,0 -0.168,-0.0781 -0.168,-0.2461 0,-0.164 0.157,-0.2621 0.313,-0.2621 0.121,0 0.297,0.0782 0.297,0.2742 0,0.195 -0.219,0.3821 -0.52,0.3821 -0.519,0 -0.773,-0.4211 -0.863,-0.6871 z"
       style="fill:#000000;fill-opacity:1;fill-rule:nonzero;stroke:none;stroke-width:0.1"
       id="path114" /><path
       d="m 131.289,54.0621 c 0,-0.2769 -0.078,-0.2769 -0.555,-0.2769 v -0.1954 c 0.235,0.0122 0.567,0.0192 0.762,0.0192 0.223,0 0.5,-0.007 0.785,-0.0192 v 0.1954 c -0.472,0 -0.551,0 -0.551,0.2769 v 0.6449 l 0.454,0.3442 c 0.543,-0.6563 0.839,-1.0082 0.839,-1.125 0,-0.1211 -0.121,-0.141 -0.253,-0.141 v -0.1954 c 0.187,0.0122 0.605,0.0192 0.761,0.0192 0.199,0 0.41,-0.007 0.61,-0.0192 v 0.1954 c -0.266,0 -0.422,0 -0.688,0.3359 l -0.894,1.1168 c -0.012,0.0082 -0.043,0.0473 -0.043,0.0672 0,0.0187 0.507,0.4019 0.574,0.4527 0.441,0.3121 0.738,0.332 0.883,0.332 v 0.1954 c -0.2,-0.0192 -0.285,-0.0192 -0.485,-0.0192 -0.254,0 -0.695,0.011 -0.797,0.0192 v -0.1954 c 0.133,0 0.211,-0.0699 0.211,-0.1558 0,-0.1289 -0.101,-0.1961 -0.156,-0.2469 l -0.992,-0.7531 v 2.9961 l -1.02,-0.0672 V 57.668 c 0.5,0 0.555,-0.0391 0.555,-0.3559 z"
       style="fill:#000000;fill-opacity:1;fill-rule:nonzero;stroke:none;stroke-width:0.1"
       id="path116" /><g
       id="g118"
       transform="scale(0.108968,-0.0910321)"><path
         d="m 1335.37,-432.325 h 81.48 l -40.73,103.672 c -18.6,-45.223 -18.53,-45.189 -40.75,-103.672 z"
         style="fill:none;stroke:#000000;stroke-width:4.47442;stroke-linecap:square;stroke-linejoin:miter;stroke-miterlimit:4;stroke-dasharray:none;stroke-opacity:1"
         id="path120" /></g><g
       id="g122"
       transform="scale(0.108968,-0.0910321)"><path
         d="m 1203.66,-237.901 h 170.67"
         style="fill:none;stroke:#000000;stroke-width:4.79293;stroke-linecap:butt;stroke-linejoin:miter;stroke-miterlimit:4;stroke-dasharray:none;stroke-opacity:1"
         id="path124" /></g><g
       id="g126"
       transform="scale(0.108968,-0.0910321)"><path
         d="m 1376.12,-330.241 v 94.743"
         style="fill:none;stroke:#000000;stroke-width:5.31543;stroke-linecap:butt;stroke-linejoin:miter;stroke-miterlimit:4;stroke-dasharray:none;stroke-opacity:1"
         id="path128" /></g><path
       d="M 4.71914,23.668 H 37 c 2.434,0 4.391,-1.9571 4.391,-4.3871 0,-2.4289 -1.957,-4.386 -4.391,-4.386 H 4.71914 c -2.43008,0 -4.387109,1.9571 -4.387109,4.386 0,2.43 1.957029,4.3871 4.387109,4.3871 z"
       style="fill:none;stroke:#000000;stroke-width:0.66407;stroke-linecap:square;stroke-linejoin:round;stroke-miterlimit:4;stroke-dasharray:none;stroke-opacity:1"
       id="path130" /><path
       d="M 41.5199,19.3359 C 56.7148,19.234 53.723,43.7148 68.0391,43.6762"
       style="fill:none;stroke:#000000;stroke-width:0.749999;stroke-linecap:butt;stroke-linejoin:miter;stroke-miterlimit:4;stroke-dasharray:none;stroke-opacity:1"
       id="path132" /><path
       d="m 69.7699,43.6719 -2.6019,-1.4918 0.0082,3 z"
       style="fill:#000000;fill-opacity:1;fill-rule:evenodd;stroke:none;stroke-width:0.1"
       id="path134" /><path
       d="m 69.7699,43.6719 -2.6019,-1.4918 0.0082,3 z"
       style="fill:none;stroke:#000000;stroke-width:0.399999;stroke-linecap:butt;stroke-linejoin:miter;stroke-miterlimit:4;stroke-dasharray:none;stroke-opacity:1"
       id="path136" /><path
       d="m 41.5199,19.3359 c 14.609,0.125 14.125,8.5391 26.234,8.6211"
       style="fill:none;stroke:#000000;stroke-width:0.749999;stroke-linecap:butt;stroke-linejoin:miter;stroke-miterlimit:4;stroke-dasharray:none;stroke-opacity:1"
       id="path138" /><path
       d="m 69.484,27.9691 -2.586,-1.5203 -0.0191,3 z"
       style="fill:#000000;fill-opacity:1;fill-rule:evenodd;stroke:none;stroke-width:0.1"
       id="path140" /><path
       d="m 69.484,27.9691 -2.586,-1.5203 -0.0191,3 z"
       style="fill:none;stroke:#000000;stroke-width:0.399999;stroke-linecap:butt;stroke-linejoin:miter;stroke-miterlimit:4;stroke-dasharray:none;stroke-opacity:1"
       id="path142" /><path
       d="M 41.5199,19.3359 C 55.2852,19.0859 53.707,7.01211 67.848,7.21484"
       style="fill:none;stroke:#000000;stroke-width:0.749999;stroke-linecap:butt;stroke-linejoin:miter;stroke-miterlimit:4;stroke-dasharray:none;stroke-opacity:1"
       id="path144" /><path
       d="m 69.5781,7.24219 -2.5742,-1.53906 -0.043,3 z"
       style="fill:#000000;fill-opacity:1;fill-rule:evenodd;stroke:none;stroke-width:0.1"
       id="path146" /><path
       d="m 69.5781,7.24219 -2.5742,-1.53906 -0.043,3 z"
       style="fill:none;stroke:#000000;stroke-width:0.399999;stroke-linecap:butt;stroke-linejoin:miter;stroke-miterlimit:4;stroke-dasharray:none;stroke-opacity:1"
       id="path148" /><path
       d="m 3.43008,19.602 v 2.0031 c 0,0.1801 0,0.2777 0.17187,0.3008 0.07422,0.0121 0.31211,0.0121 0.47188,0.0121 0.70312,0 1.57812,-0.0352 1.57812,-1.152 0,-0.532 -0.18281,-1.164 -1.34297,-1.164 z m 1.66797,-0.0981 c 0.7539,0.1832 1.37109,0.6563 1.37109,1.2621 0,0.7418 -0.90312,1.3942 -2.05117,1.3942 H 1.93789 V 21.918 H 2.13281 C 2.73789,21.918 2.75,21.8359 2.75,21.5551 v -4.075 c 0,-0.277 -0.01211,-0.3629 -0.61719,-0.3629 H 1.93789 V 16.875 c 0.28125,0.023 0.85117,0.023 1.14805,0.023 0.30898,0 0.875,0 1.16015,-0.023 v 0.2422 H 4.04688 c -0.60586,0 -0.6168,0.0859 -0.6168,0.3629 v 1.9539 h 0.90195 c 0.125,0 0.45703,0 0.7418,-0.266 0.29726,-0.27 0.29726,-0.5121 0.29726,-1.0309 0,-0.5 0,-0.8133 0.31993,-1.1062 0.32109,-0.277 0.7539,-0.3278 0.98906,-0.3278 0.6168,0 0.7539,0.6328 0.7539,0.852 0,0.0469 0,0.132 -0.10195,0.132 -0.08594,0 -0.08594,-0.0742 -0.09805,-0.1211 -0.05,-0.5582 -0.31992,-0.691 -0.51914,-0.691 -0.38281,0 -0.44492,0.398 -0.55468,1.1129 L 6.05117,18.609 c -0.13711,0.4961 -0.52031,0.75 -0.95312,0.8949 z"
       style="fill:#000000;fill-opacity:1;fill-rule:nonzero;stroke:none;stroke-width:0.1"
       id="path150" /><path
       d="M 12.043,22.1371 H 7.71914 v -0.2422 h 0.18672 c 0.60625,0 0.6293,-0.0859 0.6293,-0.364 v -4.0508 c 0,-0.277 -0.02305,-0.3629 -0.6293,-0.3629 H 7.71914 V 16.875 c 0.27305,0.023 0.88984,0.023 1.19883,0.023 0.31992,0 1.03906,0 1.31993,-0.023 v 0.2422 H 9.98008 c -0.74219,0 -0.74219,0.0976 -0.74219,0.3629 v 1.9027 h 0.66797 c 0.76604,0 0.84024,-0.2418 0.84024,-0.8949 h 0.1988 v 2.0473 h -0.1988 c 0,-0.6524 -0.0742,-0.9063 -0.84024,-0.9063 H 9.23789 v 1.9652 c 0,0.2539 0.01211,0.3008 0.3832,0.3008 h 0.94181 c 1.1832,0 1.382,-0.4379 1.5031,-1.5039 h 0.2 z"
       style="fill:#000000;fill-opacity:1;fill-rule:nonzero;stroke:none;stroke-width:0.1"
       id="path152" /><path
       d="m 16.152,18.559 c 0,1.2609 0.641,1.589 1.0628,1.589 0.0743,0 0.5661,-0.0109 0.8403,-0.289 -0.325,-0.027 -0.3711,-0.257 -0.3711,-0.3551 0,-0.2027 0.148,-0.3519 0.3551,-0.3519 0.2109,0 0.3711,0.121 0.3711,0.3679 0,0.5192 -0.6051,0.8242 -1.2114,0.8242 -0.9879,0 -1.7027,-0.8402 -1.7027,-1.7972 0,-0.9918 0.7769,-1.7578 1.6918,-1.7578 1.05,0 1.3082,0.9339 1.3082,1.0078 0,0.0703 -0.0859,0.0703 -0.109,0.0703 -0.0633,0 -0.0859,-0.0231 -0.098,-0.0703 -0.2231,-0.7149 -0.7422,-0.8129 -1.027,-0.8129 -0.418,0 -1.1101,0.3281 -1.1101,1.575 z"
       style="fill:#000000;fill-opacity:1;fill-rule:nonzero;stroke:none;stroke-width:0.1"
       id="path154" /><path
       d="m 19.375,17.457 c 0,-0.3398 -0.0859,-0.3398 -0.6172,-0.3398 V 16.875 c 0.2852,0.0121 0.6801,0.023 0.9024,0.023 0.1988,0 0.6058,-0.0109 0.875,-0.023 v 0.2422 c -0.5274,0 -0.6172,0 -0.6172,0.3398 v 1.4301 c 0,0.8 0.5699,1.2379 1.0621,1.2379 0.5078,0 0.5937,-0.4141 0.5937,-0.8629 V 17.457 c 0,-0.3398 -0.0859,-0.3398 -0.6168,-0.3398 V 16.875 c 0.2731,0.0121 0.6801,0.023 0.891,0.023 0.195,0 0.6168,-0.0109 0.875,-0.023 v 0.2422 c -0.407,0 -0.6058,0 -0.6058,0.2308 v 1.4801 c 0,0.6641 0,0.8949 -0.2461,1.1758 -0.1133,0.1332 -0.3711,0.2891 -0.8281,0.2891 -0.668,0 -1.0121,-0.461 -1.1481,-0.7621 v 2.7152 L 18.7578,22.1602 V 21.918 c 0.5551,0 0.6172,-0.0469 0.6172,-0.434 z"
       style="fill:#000000;fill-opacity:1;fill-rule:nonzero;stroke:none;stroke-width:0.1"
       id="path156" /><path
       d="m 25.5039,17.457 c 0.0391,-0.305 0.25,-0.6332 0.6172,-0.6332 0.1758,0 0.6559,0.1102 0.6559,0.7422 V 18 h -0.1989 v -0.434 c 0,-0.4488 -0.1953,-0.5 -0.2812,-0.5 C 26.0352,17.066 26,17.418 26,17.457 v 1.5391 c 0,0.3277 0,0.6328 -0.2852,0.9219 -0.3089,0.305 -0.7027,0.4261 -1.0738,0.4261 -0.657,0 -1.2,-0.364 -1.2,-0.875 0,-0.2312 0.161,-0.364 0.3719,-0.364 0.2223,0 0.359,0.157 0.359,0.3519 0,0.0981 -0.0391,0.352 -0.4098,0.352 0.2219,0.2808 0.6051,0.3629 0.8551,0.3629 0.3949,0 0.8398,-0.3008 0.8398,-0.9918 V 18.898 c -0.4101,-0.023 -0.9531,-0.046 -1.4449,-0.2769 -0.5941,-0.266 -0.793,-0.668 -0.793,-1.0082 0,-0.6289 0.7649,-0.8238 1.261,-0.8238 0.5199,0 0.875,0.316 1.0238,0.6679 z m -0.0469,1.2731 v -0.777 c 0,-0.7261 -0.5699,-0.9961 -0.9261,-0.9961 -0.386,0 -0.7071,0.27 -0.7071,0.6559 0,0.4262 0.3364,1.0672 1.6332,1.1172 z"
       style="fill:#000000;fill-opacity:1;fill-rule:nonzero;stroke:none;stroke-width:0.1"
       id="path158" /><path
       d="m 28.2191,20.293 -1.098,-0.0821 v -0.2461 c 0.5078,0 0.582,-0.0468 0.582,-0.4218 v -2.086 c 0,-0.3398 -0.0902,-0.3398 -0.6172,-0.3398 V 16.875 c 0.2461,0.0121 0.6762,0.023 0.8629,0.023 0.2852,0 0.5551,-0.0109 0.8282,-0.023 v 0.2422 c -0.5309,0 -0.5579,0.0348 -0.5579,0.3398 z m 0.027,1.348 c 0,0.2418 -0.1871,0.4102 -0.4102,0.4102 -0.2461,0 -0.4179,-0.2032 -0.4179,-0.4102 0,-0.207 0.1718,-0.414 0.4179,-0.414 0.2231,0 0.4102,0.171 0.4102,0.414 z"
       style="fill:#000000;fill-opacity:1;fill-rule:nonzero;stroke:none;stroke-width:0.1"
       id="path160" /><path
       d="M 29.875,19.5309 V 17.457 c 0,-0.3398 -0.0859,-0.3398 -0.6172,-0.3398 V 16.875 c 0.2852,0.0121 0.6801,0.023 0.9024,0.023 0.1988,0 0.6058,-0.0109 0.8789,-0.023 v 0.2422 c -0.5313,0 -0.6172,0 -0.6172,0.3398 v 1.4301 c 0,0.8 0.566,1.2379 1.0582,1.2379 0.5078,0 0.5937,-0.4141 0.5937,-0.8629 V 17.457 c 0,-0.3398 -0.0859,-0.3398 -0.6168,-0.3398 V 16.875 c 0.2731,0.0121 0.6801,0.023 0.891,0.023 0.195,0 0.6168,-0.0109 0.875,-0.023 v 0.2422 c -0.407,0 -0.6058,0 -0.6058,0.2308 v 1.4801 c 0,0.6641 0,0.8949 -0.2461,1.1758 -0.109,0.1332 -0.3711,0.2891 -0.8281,0.2891 -0.5782,0 -0.9489,-0.3282 -1.1719,-0.8129 v 0.8129 l -1.1133,-0.0821 v -0.2461 c 0.5582,0 0.6172,-0.0468 0.6172,-0.4339 z"
       style="fill:#000000;fill-opacity:1;fill-rule:nonzero;stroke:none;stroke-width:0.1"
       id="path162" /><path
       d="m 39.1328,21.7148 c 0,0.1442 -0.1098,0.2774 -0.2969,0.2774 -0.1839,0 -0.4179,-0.1832 -0.4179,-0.4141 0,-0.1562 0.109,-0.2769 0.2968,-0.2769 0.2114,0 0.418,0.2066 0.418,0.4136 z M 37.5551,16.484 c -0.1492,-0.582 -0.5321,-1.0309 -0.9653,-1.0309 -0.0507,0 -0.1718,0 -0.3089,0.0739 0.2351,0.0511 0.3441,0.2539 0.3441,0.414 0,0.1211 -0.0859,0.266 -0.293,0.266 -0.1992,0 -0.4218,-0.1558 -0.4218,-0.4371 0,-0.3168 0.3089,-0.4847 0.6918,-0.4847 0.5539,0 1.2851,0.4136 1.4839,1.1757 l 0.7153,2.8403 c 0.0508,0.1437 0.0508,0.2539 0.0508,0.2769 0,0.4489 -0.336,0.7149 -0.7309,0.7149 -0.8051,0 -1.2461,-1.125 -1.2461,-1.1879 0,-0.0852 0.0738,-0.0852 0.0859,-0.0852 0.0743,0 0.086,0.011 0.1481,0.1602 0.1961,0.4719 0.5551,0.9449 0.989,0.9449 0.109,0 0.2461,-0.0352 0.2461,-0.352 0,-0.1832 -0.0121,-0.2691 -0.0511,-0.4019 z"
       style="fill:#000000;fill-opacity:1;fill-rule:nonzero;stroke:none;stroke-width:0.1"
       id="path164" /><path
       d="m 150.145,19.0391 c 0,0.1558 -0.129,0.273 -0.332,0.273 -0.258,0 -0.504,-0.2031 -0.504,-0.4062 0,-0.1438 0.129,-0.277 0.347,-0.277 0.215,0 0.489,0.1801 0.489,0.4102 z m -0.692,-2.8789 c 0.102,0.2148 0.102,0.2418 0.203,0.4449 0.071,0.157 0.114,0.2621 0.114,0.407 0,0.3359 -0.286,0.625 -0.747,0.625 -0.863,0 -1.21,-1.1172 -1.21,-1.1762 0,-0.0859 0.085,-0.0859 0.101,-0.0859 0.102,0 0.102,0.027 0.145,0.1449 0.257,0.718 0.617,0.9492 0.933,0.9492 0.074,0 0.231,0 0.231,-0.2421 0,-0.168 -0.071,-0.325 -0.102,-0.4071 -0.07,-0.191 -0.488,-1.0777 -0.633,-1.414 -0.097,-0.1911 -0.215,-0.445 -0.215,-0.6129 0,-0.359 0.317,-0.6211 0.75,-0.6211 0.864,0 1.207,1.1011 1.207,1.1761 0,0.0821 -0.085,0.0821 -0.113,0.0821 -0.09,0 -0.09,-0.0242 -0.133,-0.1449 -0.171,-0.4801 -0.472,-0.9454 -0.933,-0.9454 -0.156,0 -0.231,0.0704 -0.231,0.25 0,0.1911 0.059,0.3012 0.274,0.7692 z"
       style="fill:#000000;fill-opacity:1;fill-rule:nonzero;stroke:none;stroke-width:0.1"
       id="path166" /><g
       transform="matrix(1.33333,0,0,-1.33333,90.3266,68.237068)"
       ns3:version="1.3.0"
       ns3:texconverter="pdflatex"
       ns3:pdfconverter="inkscape"
       ns3:text="$N_{\\mathrm{ps}}$"
       ns3:preamble="C:\Users\Jamal\AppData\Roaming\inkscape\extensions\textext\default_packages.tex"
       ns3:scale="1.0"
       ns3:alignment="middle center"
       ns3:jacobian_sqrt="1.33333"
       id="g1170"><defs
   id="id-dfc205f0-f412-40e3-98b2-b38d2ceb0cbc">
    <g
   id="id-f856c148-b0f8-4299-a289-acd98e6294ec">
      <symbol
   overflow="visible"
   id="id-773e5d95-16e7-40c0-8e87-e1ca8d26f258">
        <path
   style="stroke:none;stroke-width:0"
   d=""
   id="id-6f9d1b47-c688-4995-b948-e407ff9b873e" />
      </symbol>
      <symbol
   overflow="visible"
   id="id-bd2504e0-a438-4ad7-b7a2-edc97d425394">
        <path
   style="stroke:none;stroke-width:0"
   d="M 7.53125,-5.765625 C 7.640625,-6.15625 7.8125,-6.46875 8.609375,-6.5 c 0.046875,0 0.171875,-0.015625 0.171875,-0.203125 0,0 0,-0.109375 -0.125,-0.109375 -0.328125,0 -0.6875,0.03125 -1.015625,0.03125 -0.328125,0 -0.6875,-0.03125 -1.015625,-0.03125 -0.0625,0 -0.171875,0 -0.171875,0.203125 C 6.453125,-6.5 6.546875,-6.5 6.625,-6.5 c 0.578125,0.015625 0.6875,0.21875 0.6875,0.4375 0,0.03125 -0.03125,0.1875 -0.03125,0.203125 l -1.125,4.4375 L 3.953125,-6.625 C 3.875,-6.796875 3.875,-6.8125 3.640625,-6.8125 h -1.34375 c -0.1875,0 -0.28125,0 -0.28125,0.203125 0,0.109375 0.09375,0.109375 0.28125,0.109375 0.046875,0 0.671875,0 0.671875,0.09375 L 1.640625,-1.0625 c -0.109375,0.40625 -0.28125,0.71875 -1.078125,0.75 -0.0625,0 -0.171875,0.015625 -0.171875,0.203125 0,0.0625 0.046875,0.109375 0.125,0.109375 0.328125,0 0.671875,-0.03125 1,-0.03125 C 1.859375,-0.03125 2.21875,0 2.546875,0 2.59375,0 2.71875,0 2.71875,-0.203125 2.71875,-0.296875 2.625,-0.3125 2.515625,-0.3125 1.9375,-0.328125 1.859375,-0.546875 1.859375,-0.75 c 0,-0.0625 0.015625,-0.125 0.046875,-0.234375 l 1.3125,-5.25 C 3.265625,-6.1875 3.265625,-6.15625 3.3125,-6.0625 l 2.484375,5.875 C 5.859375,-0.015625 5.890625,0 5.984375,0 6.09375,0 6.09375,-0.03125 6.140625,-0.203125 Z m 0,0"
   id="id-48fd3649-9754-4a66-ac74-cb9a611e793d" />
      </symbol>
      <symbol
   overflow="visible"
   id="id-7b2dbc85-656b-4672-ba0f-4f0743c0c9a4">
        <path
   style="stroke:none;stroke-width:0"
   d=""
   id="id-c2cbe3a8-37e3-448a-b3f1-c7baab89ec84" />
      </symbol>
      <symbol
   overflow="visible"
   id="id-c57e5de3-bc0f-4809-bf2b-0ca3666e5b80">
        <path
   style="stroke:none;stroke-width:0"
   d="m 1.9375,1.09375 c -0.453125,0 -0.515625,0 -0.515625,-0.296875 v -1.125 C 1.453125,-0.296875 1.78125,0.0625 2.359375,0.0625 3.28125,0.0625 4.0625,-0.625 4.0625,-1.5 c 0,-0.859375 -0.703125,-1.578125 -1.59375,-1.578125 -0.390625,0 -0.796875,0.15625 -1.078125,0.4375 v -0.4375 L 0.34375,-3 v 0.25 c 0.484375,0 0.515625,0.046875 0.515625,0.328125 v 3.21875 c 0,0.296875 -0.0625,0.296875 -0.515625,0.296875 v 0.265625 c 0.015625,0 0.5,-0.03125 0.796875,-0.03125 0.25,0 0.734375,0.015625 0.796875,0.03125 z M 1.421875,-2.328125 C 1.625,-2.671875 2.03125,-2.84375 2.390625,-2.84375 c 0.59375,0 1.046875,0.609375 1.046875,1.34375 0,0.796875 -0.53125,1.375 -1.109375,1.375 -0.625,0 -0.890625,-0.53125 -0.90625,-0.578125 z m 0,0"
   id="id-01f27d4b-e2c2-4f8b-9611-371a887d5ee6" />
      </symbol>
      <symbol
   overflow="visible"
   id="id-b4814d53-1357-47d7-9b92-525408fb4ac3">
        <path
   style="stroke:none;stroke-width:0"
   d="m 2.640625,-2.921875 c 0,-0.125 0,-0.1875 -0.09375,-0.1875 -0.03125,0 -0.046875,0 -0.140625,0.078125 -0.015625,0.015625 -0.078125,0.078125 -0.125,0.109375 -0.21875,-0.140625 -0.46875,-0.1875 -0.734375,-0.1875 -1,0 -1.234375,0.53125 -1.234375,0.875 0,0.21875 0.09375,0.40625 0.265625,0.546875 0.265625,0.21875 0.53125,0.265625 0.96875,0.34375 0.34375,0.0625 0.90625,0.15625 0.90625,0.625 0,0.265625 -0.1875,0.59375 -0.859375,0.59375 -0.671875,0 -0.90625,-0.4375 -1.03125,-0.90625 -0.03125,-0.09375 -0.03125,-0.125 -0.125,-0.125 -0.125,0 -0.125,0.046875 -0.125,0.1875 v 0.859375 C 0.3125,0 0.3125,0.0625 0.40625,0.0625 0.46875,0.0625 0.609375,-0.078125 0.75,-0.234375 1.046875,0.0625 1.421875,0.0625 1.59375,0.0625 c 0.90625,0 1.25,-0.484375 1.25,-0.96875 0,-0.265625 -0.125,-0.484375 -0.3125,-0.640625 -0.265625,-0.25 -0.578125,-0.3125 -0.828125,-0.34375 -0.546875,-0.109375 -1,-0.1875 -1,-0.5625 0,-0.21875 0.1875,-0.484375 0.84375,-0.484375 0.8125,0 0.84375,0.5625 0.859375,0.765625 0,0.078125 0.09375,0.078125 0.109375,0.078125 0.125,0 0.125,-0.046875 0.125,-0.1875 z m 0,0"
   id="id-756812e1-c798-48d6-861e-9c101900b949" />
      </symbol>
    </g>
  </defs>
  
<g
   transform="matrix(0.533332,0,0,0.533332,-2.5463379,35.909189)"
   ns3:version="1.3.0"
   ns3:texconverter="pdflatex"
   ns3:pdfconverter="inkscape"
   ns3:text="$N_{\\mathrm{ps}}$"
   ns3:preamble="C:\Users\Jamal\AppData\Roaming\inkscape\extensions\textext\default_packages.tex"
   ns3:scale="0.4"
   ns3:alignment="middle center"
   ns3:jacobian_sqrt="0.533332"
   id="g1491"><defs
   id="id-75926f26-b802-45ce-adb6-2d5315effb6e">
    <g
   id="id-c1f27c5f-189c-4e9e-9c24-e540bfe3cf70">
      <symbol
   overflow="visible"
   id="id-05fc0198-5493-4e20-9b0a-d8b66c599be5">
        <path
   style="stroke:none"
   d=""
   id="id-a3213be0-b8a3-4028-8300-4a75c2c262e9" />
      </symbol>
      <symbol
   overflow="visible"
   id="id-a055128a-6886-4248-853c-e249d5aed579">
        <path
   style="stroke:none"
   d="M 7.53125,-5.765625 C 7.640625,-6.15625 7.8125,-6.46875 8.609375,-6.5 c 0.046875,0 0.171875,-0.015625 0.171875,-0.203125 0,0 0,-0.109375 -0.125,-0.109375 -0.328125,0 -0.6875,0.03125 -1.015625,0.03125 -0.328125,0 -0.6875,-0.03125 -1.015625,-0.03125 -0.0625,0 -0.171875,0 -0.171875,0.203125 C 6.453125,-6.5 6.546875,-6.5 6.625,-6.5 c 0.578125,0.015625 0.6875,0.21875 0.6875,0.4375 0,0.03125 -0.03125,0.1875 -0.03125,0.203125 l -1.125,4.4375 L 3.953125,-6.625 C 3.875,-6.796875 3.875,-6.8125 3.640625,-6.8125 h -1.34375 c -0.1875,0 -0.28125,0 -0.28125,0.203125 0,0.109375 0.09375,0.109375 0.28125,0.109375 0.046875,0 0.671875,0 0.671875,0.09375 L 1.640625,-1.0625 c -0.109375,0.40625 -0.28125,0.71875 -1.078125,0.75 -0.0625,0 -0.171875,0.015625 -0.171875,0.203125 0,0.0625 0.046875,0.109375 0.125,0.109375 0.328125,0 0.671875,-0.03125 1,-0.03125 C 1.859375,-0.03125 2.21875,0 2.546875,0 2.59375,0 2.71875,0 2.71875,-0.203125 2.71875,-0.296875 2.625,-0.3125 2.515625,-0.3125 1.9375,-0.328125 1.859375,-0.546875 1.859375,-0.75 c 0,-0.0625 0.015625,-0.125 0.046875,-0.234375 l 1.3125,-5.25 C 3.265625,-6.1875 3.265625,-6.15625 3.3125,-6.0625 l 2.484375,5.875 C 5.859375,-0.015625 5.890625,0 5.984375,0 6.09375,0 6.09375,-0.03125 6.140625,-0.203125 Z m 0,0"
   id="id-198f9d46-0336-4687-a410-7315169cead4" />
      </symbol>
      <symbol
   overflow="visible"
   id="id-2773824c-141c-49f7-a4af-b0d1b403aff1">
        <path
   style="stroke:none"
   d=""
   id="id-a2e22903-14f3-49b4-8bd5-f79bc62a7153" />
      </symbol>
      <symbol
   overflow="visible"
   id="id-ffb95359-2f30-409f-b021-fffacb180abb">
        <path
   style="stroke:none"
   d="m 1.9375,1.09375 c -0.453125,0 -0.515625,0 -0.515625,-0.296875 v -1.125 C 1.453125,-0.296875 1.78125,0.0625 2.359375,0.0625 3.28125,0.0625 4.0625,-0.625 4.0625,-1.5 c 0,-0.859375 -0.703125,-1.578125 -1.59375,-1.578125 -0.390625,0 -0.796875,0.15625 -1.078125,0.4375 v -0.4375 L 0.34375,-3 v 0.25 c 0.484375,0 0.515625,0.046875 0.515625,0.328125 v 3.21875 c 0,0.296875 -0.0625,0.296875 -0.515625,0.296875 v 0.265625 c 0.015625,0 0.5,-0.03125 0.796875,-0.03125 0.25,0 0.734375,0.015625 0.796875,0.03125 z M 1.421875,-2.328125 C 1.625,-2.671875 2.03125,-2.84375 2.390625,-2.84375 c 0.59375,0 1.046875,0.609375 1.046875,1.34375 0,0.796875 -0.53125,1.375 -1.109375,1.375 -0.625,0 -0.890625,-0.53125 -0.90625,-0.578125 z m 0,0"
   id="id-3e5dccc8-3117-4bf7-93c8-1cfae5b6b44f" />
      </symbol>
      <symbol
   overflow="visible"
   id="id-614f2f94-d067-41e0-a743-c0f3175bc347">
        <path
   style="stroke:none"
   d="m 2.640625,-2.921875 c 0,-0.125 0,-0.1875 -0.09375,-0.1875 -0.03125,0 -0.046875,0 -0.140625,0.078125 -0.015625,0.015625 -0.078125,0.078125 -0.125,0.109375 -0.21875,-0.140625 -0.46875,-0.1875 -0.734375,-0.1875 -1,0 -1.234375,0.53125 -1.234375,0.875 0,0.21875 0.09375,0.40625 0.265625,0.546875 0.265625,0.21875 0.53125,0.265625 0.96875,0.34375 0.34375,0.0625 0.90625,0.15625 0.90625,0.625 0,0.265625 -0.1875,0.59375 -0.859375,0.59375 -0.671875,0 -0.90625,-0.4375 -1.03125,-0.90625 -0.03125,-0.09375 -0.03125,-0.125 -0.125,-0.125 -0.125,0 -0.125,0.046875 -0.125,0.1875 v 0.859375 C 0.3125,0 0.3125,0.0625 0.40625,0.0625 0.46875,0.0625 0.609375,-0.078125 0.75,-0.234375 1.046875,0.0625 1.421875,0.0625 1.59375,0.0625 c 0.90625,0 1.25,-0.484375 1.25,-0.96875 0,-0.265625 -0.125,-0.484375 -0.3125,-0.640625 -0.265625,-0.25 -0.578125,-0.3125 -0.828125,-0.34375 -0.546875,-0.109375 -1,-0.1875 -1,-0.5625 0,-0.21875 0.1875,-0.484375 0.84375,-0.484375 0.8125,0 0.84375,0.5625 0.859375,0.765625 0,0.078125 0.09375,0.078125 0.109375,0.078125 0.125,0 0.125,-0.046875 0.125,-0.1875 z m 0,0"
   id="id-ce4efa7e-b815-4be5-8a84-aac00d68f6b9" />
      </symbol>
    </g>
  </defs>
  <g
   id="id-39089e1d-901a-4c4c-b7ce-b501efdf4132"
   transform="translate(-149.103,-127.953)">
    <g
   style="fill:#000000;fill-opacity:1"
   id="id-a3096058-9b0b-4b8c-adb5-f4246dadc4d2">
      <g
   transform="translate(148.712,134.765)"
   id="g1652"><path
   style="stroke:none"
   d="M 7.53125,-5.765625 C 7.640625,-6.15625 7.8125,-6.46875 8.609375,-6.5 c 0.046875,0 0.171875,-0.015625 0.171875,-0.203125 0,0 0,-0.109375 -0.125,-0.109375 -0.328125,0 -0.6875,0.03125 -1.015625,0.03125 -0.328125,0 -0.6875,-0.03125 -1.015625,-0.03125 -0.0625,0 -0.171875,0 -0.171875,0.203125 C 6.453125,-6.5 6.546875,-6.5 6.625,-6.5 c 0.578125,0.015625 0.6875,0.21875 0.6875,0.4375 0,0.03125 -0.03125,0.1875 -0.03125,0.203125 l -1.125,4.4375 L 3.953125,-6.625 C 3.875,-6.796875 3.875,-6.8125 3.640625,-6.8125 h -1.34375 c -0.1875,0 -0.28125,0 -0.28125,0.203125 0,0.109375 0.09375,0.109375 0.28125,0.109375 0.046875,0 0.671875,0 0.671875,0.09375 L 1.640625,-1.0625 c -0.109375,0.40625 -0.28125,0.71875 -1.078125,0.75 -0.0625,0 -0.171875,0.015625 -0.171875,0.203125 0,0.0625 0.046875,0.109375 0.125,0.109375 0.328125,0 0.671875,-0.03125 1,-0.03125 C 1.859375,-0.03125 2.21875,0 2.546875,0 2.59375,0 2.71875,0 2.71875,-0.203125 2.71875,-0.296875 2.625,-0.3125 2.515625,-0.3125 1.9375,-0.328125 1.859375,-0.546875 1.859375,-0.75 c 0,-0.0625 0.015625,-0.125 0.046875,-0.234375 l 1.3125,-5.25 C 3.265625,-6.1875 3.265625,-6.15625 3.3125,-6.0625 l 2.484375,5.875 C 5.859375,-0.015625 5.890625,0 5.984375,0 6.09375,0 6.09375,-0.03125 6.140625,-0.203125 Z m 0,0"
   id="id-859673ca-38bb-4bc8-b7c9-0a01860fa173" />
      </g></g>
    <g
   style="fill:#000000;fill-opacity:1"
   id="id-b8079234-f9ba-452f-8df4-9d51921e56c2">
      <g
   transform="translate(156.717,136.259)"
   id="g1656"><path
   style="stroke:none"
   d="m 1.9375,1.09375 c -0.453125,0 -0.515625,0 -0.515625,-0.296875 v -1.125 C 1.453125,-0.296875 1.78125,0.0625 2.359375,0.0625 3.28125,0.0625 4.0625,-0.625 4.0625,-1.5 c 0,-0.859375 -0.703125,-1.578125 -1.59375,-1.578125 -0.390625,0 -0.796875,0.15625 -1.078125,0.4375 v -0.4375 L 0.34375,-3 v 0.25 c 0.484375,0 0.515625,0.046875 0.515625,0.328125 v 3.21875 c 0,0.296875 -0.0625,0.296875 -0.515625,0.296875 v 0.265625 c 0.015625,0 0.5,-0.03125 0.796875,-0.03125 0.25,0 0.734375,0.015625 0.796875,0.03125 z M 1.421875,-2.328125 C 1.625,-2.671875 2.03125,-2.84375 2.390625,-2.84375 c 0.59375,0 1.046875,0.609375 1.046875,1.34375 0,0.796875 -0.53125,1.375 -1.109375,1.375 -0.625,0 -0.890625,-0.53125 -0.90625,-0.578125 z m 0,0"
   id="id-8e0d0ef8-cf03-4fa0-a507-41b8fb83e3b5" />
      </g><g
   transform="translate(161.117,136.259)"
   id="g1659"><path
   style="stroke:none"
   d="m 2.640625,-2.921875 c 0,-0.125 0,-0.1875 -0.09375,-0.1875 -0.03125,0 -0.046875,0 -0.140625,0.078125 -0.015625,0.015625 -0.078125,0.078125 -0.125,0.109375 -0.21875,-0.140625 -0.46875,-0.1875 -0.734375,-0.1875 -1,0 -1.234375,0.53125 -1.234375,0.875 0,0.21875 0.09375,0.40625 0.265625,0.546875 0.265625,0.21875 0.53125,0.265625 0.96875,0.34375 0.34375,0.0625 0.90625,0.15625 0.90625,0.625 0,0.265625 -0.1875,0.59375 -0.859375,0.59375 -0.671875,0 -0.90625,-0.4375 -1.03125,-0.90625 -0.03125,-0.09375 -0.03125,-0.125 -0.125,-0.125 -0.125,0 -0.125,0.046875 -0.125,0.1875 v 0.859375 C 0.3125,0 0.3125,0.0625 0.40625,0.0625 0.46875,0.0625 0.609375,-0.078125 0.75,-0.234375 1.046875,0.0625 1.421875,0.0625 1.59375,0.0625 c 0.90625,0 1.25,-0.484375 1.25,-0.96875 0,-0.265625 -0.125,-0.484375 -0.3125,-0.640625 -0.265625,-0.25 -0.578125,-0.3125 -0.828125,-0.34375 -0.546875,-0.109375 -1,-0.1875 -1,-0.5625 0,-0.21875 0.1875,-0.484375 0.84375,-0.484375 0.8125,0 0.84375,0.5625 0.859375,0.765625 0,0.078125 0.09375,0.078125 0.109375,0.078125 0.125,0 0.125,-0.046875 0.125,-0.1875 z m 0,0"
   id="id-a93f9826-0044-43ea-9b74-7de9c84bb2ac" />
      </g></g>
  </g>
</g></g></g></svg>
